<svg xmlns="http://www.w3.org/2000/svg" xmlns:xlink="http://www.w3.org/1999/xlink" version="1.1" width="311.811pt" height="453.5433pt" viewBox="0 0 311.811 453.5433">
<g id="layer_1" data-name="Layer 1">
<path transform="matrix(1,0,0,-1,0,453.5433)" d="M297.6378 439.3704V14.1729H14.1732V439.3704Z" fill="#FFBF00" fill-rule="evenodd"/>
<path transform="matrix(1,0,0,-1,0,453.5433)" d="M36.095 55.912V89.64L34.1722 94.2137H41.3957L57.7134 55.5477C57.6105 56.1209 57.6105 56.6912 57.6105 57.3154 57.6105 57.7329 57.6105 58.199 57.6624 58.6675 58.1298 63.1879 60.7796 66.9824 63.5338 70.9832 66.8597 76.0258 70.5498 81.2205 71.2259 88.7562 71.2259 91.6671 70.8619 93.6941 67.7957 93.6941V94.2137C70.7573 94.0048 72.5247 93.9005 74.3428 93.9005 76.2656 93.9005 78.1376 94.0048 81.3067 94.2137V93.6941C78.2408 93.6941 77.8779 91.8224 77.8779 88.8605V55.912C77.8779 52.2221 78.6047 50.508 82.0352 50.508V49.9887C79.5917 50.144 77.1494 50.1973 74.9146 50.1973 72.68 50.1973 70.7573 50.144 69.3541 50.093 68.5225 50.0394 67.7957 50.0394 67.1207 49.9887V50.508C70.8094 50.508 71.2259 52.6397 71.2259 56.4316V85.2214C69.5631 77.9992 65.4055 72.6463 62.0796 67.8127 60.9361 66.2031 60.0004 64.5401 59.3254 62.8237 58.6494 61.1099 58.2851 59.7574 58.2341 58.7721 58.1822 57.784 58.1298 57.2108 58.1298 57.0555 58.1298 55.3416 58.5972 53.5235 59.4286 51.5472L60.0525 49.9887H52.829L36.6667 88.2876V55.912C36.6667 51.5472 37.031 50.508 40.7733 50.508V49.9887C37.1353 50.144 36.1471 50.144 31.9898 49.9887V50.508C35.68 50.508 36.095 52.1201 36.095 55.912Z" fill="#ffffff"/>
<path transform="matrix(1,0,0,-1,0,453.5433)" stroke-width=".959" stroke-linecap="butt" stroke-miterlimit="22.925585" stroke-linejoin="miter" fill="none" stroke="#ffffff" d="M36.095 55.912V89.64L34.1722 94.2137H41.3957L57.7134 55.5477C57.6105 56.1209 57.6105 56.6912 57.6105 57.3154 57.6105 57.7329 57.6105 58.199 57.6624 58.6675 58.1298 63.1879 60.7796 66.9824 63.5338 70.9832 66.8597 76.0258 70.5498 81.2205 71.2259 88.7562 71.2259 91.6671 70.8619 93.6941 67.7957 93.6941V94.2137C70.7573 94.0048 72.5247 93.9005 74.3428 93.9005 76.2656 93.9005 78.1376 94.0048 81.3067 94.2137V93.6941C78.2408 93.6941 77.8779 91.8224 77.8779 88.8605V55.912C77.8779 52.2221 78.6047 50.508 82.0352 50.508V49.9887C79.5917 50.144 77.1494 50.1973 74.9146 50.1973 72.68 50.1973 70.7573 50.144 69.3541 50.093 68.5225 50.0394 67.7957 50.0394 67.1207 49.9887V50.508C70.8094 50.508 71.2259 52.6397 71.2259 56.4316V85.2214C69.5631 77.9992 65.4055 72.6463 62.0796 67.8127 60.9361 66.2031 60.0004 64.5401 59.3254 62.8237 58.6494 61.1099 58.2851 59.7574 58.2341 58.7721 58.1822 57.784 58.1298 57.2108 58.1298 57.0555 58.1298 55.3416 58.5972 53.5235 59.4286 51.5472L60.0525 49.9887H52.829L36.6667 88.2876V55.912C36.6667 51.5472 37.031 50.508 40.7733 50.508V49.9887C37.1353 50.144 36.1471 50.144 31.9898 49.9887V50.508C35.68 50.508 36.095 52.1201 36.095 55.912Z"/>
<path transform="matrix(1,0,0,-1,0,453.5433)" d="M84.4359 50.4037C86.4629 51.4964 87.7096 53.2638 88.8007 55.7566 91.5041 62.4594 93.9464 68.5919 96.0766 74.0492 99.8189 83.2986 103.5601 92.9149 103.9762 94.1091 104.0272 94.1601 104.0272 94.1601 104.0272 94.2137H104.4437L121.0209 55.7059C122.6316 52.0157 123.8794 50.8723 125.2828 50.4037V49.9887C122.5794 50.1973 120.606 50.2483 118.5789 50.2483 116.5518 50.2483 114.4735 50.1973 111.5626 49.9887 108.0814 49.9887 106.0021 52.0157 104.3912 54.6134 103.5601 55.912 102.8327 57.3154 102.2091 58.8229 100.3385 63.3433 98.2069 66.9824 94.3092 66.9824 94.1539 66.9824 93.9464 66.9824 93.7896 66.9824 91.9715 62.2534 90.2563 58.0946 89.5813 56.2762 89.2695 55.497 89.1649 54.7685 89.1649 54.0938 89.1649 53.6253 89.2695 53.0039 89.477 52.2221 89.7367 51.4429 90.5683 50.8723 92.0758 50.4037V49.9887C90.5683 50.144 89.5292 50.1973 88.5413 50.1973 87.2422 50.1973 86.099 50.144 84.4359 49.9887ZM94.0496 67.5527V67.5527C94.1017 67.5527 94.206 67.5527 94.2585 67.5527 95.5049 67.5527 96.6484 67.242 97.6873 66.6181 99.9743 65.1107 101.3253 62.1998 102.6241 59.2914 104.4437 55.2881 106.4707 50.559 111.5626 50.559 113.8496 50.559 114.1617 52.4307 114.1617 53.3146 114.1617 53.8849 114.0571 54.8731 113.4853 56.3298 113.4346 56.4316 113.33 56.6405 113.33 56.6912 103.7166 78.9871 103.5601 79.4024 101.0656 85.2214 100.2339 83.2479 98.3112 78.2079 96.1812 72.9057 95.4527 71.0878 94.7256 69.3201 94.0496 67.5527Z" fill="#ffffff"/>
<path transform="matrix(1,0,0,-1,0,453.5433)" stroke-width=".959" stroke-linecap="butt" stroke-miterlimit="22.925585" stroke-linejoin="miter" fill="none" stroke="#ffffff" d="M84.4359 50.4037C86.4629 51.4964 87.7096 53.2638 88.8007 55.7566 91.5041 62.4594 93.9464 68.5919 96.0766 74.0492 99.8189 83.2986 103.5601 92.9149 103.9762 94.1091 104.0272 94.1601 104.0272 94.1601 104.0272 94.2137H104.4437L121.0209 55.7059C122.6316 52.0157 123.8794 50.8723 125.2828 50.4037V49.9887C122.5794 50.1973 120.606 50.2483 118.5789 50.2483 116.5518 50.2483 114.4735 50.1973 111.5626 49.9887 108.0814 49.9887 106.0021 52.0157 104.3912 54.6134 103.5601 55.912 102.8327 57.3154 102.2091 58.8229 100.3385 63.3433 98.2069 66.9824 94.3092 66.9824 94.1539 66.9824 93.9464 66.9824 93.7896 66.9824 91.9715 62.2534 90.2563 58.0946 89.5813 56.2762 89.2695 55.497 89.1649 54.7685 89.1649 54.0938 89.1649 53.6253 89.2695 53.0039 89.477 52.2221 89.7367 51.4429 90.5683 50.8723 92.0758 50.4037V49.9887C90.5683 50.144 89.5292 50.1973 88.5413 50.1973 87.2422 50.1973 86.099 50.144 84.4359 49.9887ZM94.0496 67.5527V67.5527C94.1017 67.5527 94.206 67.5527 94.2585 67.5527 95.5049 67.5527 96.6484 67.242 97.6873 66.6181 99.9743 65.1107 101.3253 62.1998 102.6241 59.2914 104.4437 55.2881 106.4707 50.559 111.5626 50.559 113.8496 50.559 114.1617 52.4307 114.1617 53.3146 114.1617 53.8849 114.0571 54.8731 113.4853 56.3298 113.4346 56.4316 113.33 56.6405 113.33 56.6912 103.7166 78.9871 103.5601 79.4024 101.0656 85.2214 100.2339 83.2479 98.3112 78.2079 96.1812 72.9057 95.4527 71.0878 94.7256 69.3201 94.0496 67.5527Z"/>
<path transform="matrix(1,0,0,-1,0,453.5433)" d="M129.8648 58.5122H130.2812C131.1126 54.5088 133.295 49.7288 137.4523 49.7288 143.5847 49.7288 143.9997 55.5477 144.1565 61.9937V88.7054C144.1565 91.7178 143.7922 93.6941 140.7263 93.6941V94.2137C143.7922 94.0584 145.6118 94.0584 147.3259 94.0584 149.3529 94.0584 151.0679 94.0584 154.2373 94.2137V93.6941C151.1711 93.6941 150.8083 91.8224 150.8083 88.8605V66.8778C150.6515 55.082 145.6118 49.0541 135.6851 49.0541 133.295 49.0541 130.6454 49.4181 127.6821 50.144Z" fill="#ffffff"/>
<path transform="matrix(1,0,0,-1,0,453.5433)" stroke-width=".959" stroke-linecap="butt" stroke-miterlimit="22.925585" stroke-linejoin="miter" fill="none" stroke="#ffffff" d="M129.8648 58.5122H130.2812C131.1126 54.5088 133.295 49.7288 137.4523 49.7288 143.5847 49.7288 143.9997 55.5477 144.1565 61.9937V88.7054C144.1565 91.7178 143.7922 93.6941 140.7263 93.6941V94.2137C143.7922 94.0584 145.6118 94.0584 147.3259 94.0584 149.3529 94.0584 151.0679 94.0584 154.2373 94.2137V93.6941C151.1711 93.6941 150.8083 91.8224 150.8083 88.8605V66.8778C150.6515 55.082 145.6118 49.0541 135.6851 49.0541 133.295 49.0541 130.6454 49.4181 127.6821 50.144Z"/>
<path transform="matrix(1,0,0,-1,0,453.5433)" d="M153.4113 58.5122H153.8274C154.6591 54.5088 156.8415 49.7288 160.9988 49.7288 167.131 49.7288 167.546 55.5477 167.7042 61.9937V88.7054C167.7042 91.7178 167.3399 93.6941 164.2723 93.6941V94.2137C167.3399 94.0584 169.1583 94.0584 170.8719 94.0584 172.8992 94.0584 174.6156 94.0584 177.7836 94.2137V93.6941C174.7174 93.6941 174.3559 91.8224 174.3559 88.8605V66.8778C174.198 55.082 169.1583 49.0541 159.2311 49.0541 156.8415 49.0541 154.1917 49.4181 151.2286 50.144Z" fill="#ffffff"/>
<path transform="matrix(1,0,0,-1,0,453.5433)" stroke-width=".959" stroke-linecap="butt" stroke-miterlimit="22.925585" stroke-linejoin="miter" fill="none" stroke="#ffffff" d="M153.4113 58.5122H153.8274C154.6591 54.5088 156.8415 49.7288 160.9988 49.7288 167.131 49.7288 167.546 55.5477 167.7042 61.9937V88.7054C167.7042 91.7178 167.3399 93.6941 164.2723 93.6941V94.2137C167.3399 94.0584 169.1583 94.0584 170.8719 94.0584 172.8992 94.0584 174.6156 94.0584 177.7836 94.2137V93.6941C174.7174 93.6941 174.3559 91.8224 174.3559 88.8605V66.8778C174.198 55.082 169.1583 49.0541 159.2311 49.0541 156.8415 49.0541 154.1917 49.4181 151.2286 50.144Z"/>
<path transform="matrix(1,0,0,-1,0,453.5433)" d="M177.323 50.4037C179.35 51.4964 180.5953 53.2638 181.688 55.7566 184.3897 62.4594 186.8321 68.5919 188.9637 74.0492 192.7046 83.2986 196.4458 92.9149 196.8633 94.1091 196.9143 94.1601 196.9143 94.1601 196.9143 94.2137H197.3296L213.908 55.7059C215.5175 52.0157 216.7654 50.8723 218.1688 50.4037V49.9887C215.4665 50.1973 213.493 50.2483 211.466 50.2483 209.4389 50.2483 207.3606 50.1973 204.4497 49.9887 200.9687 49.9887 198.8881 52.0157 197.2783 54.6134 196.4458 55.912 195.7198 57.3154 195.0962 58.8229 193.2242 63.3433 191.0925 66.9824 187.1963 66.9824 187.041 66.9824 186.8321 66.9824 186.6767 66.9824 184.8586 62.2534 183.1419 58.0946 182.4673 56.2762 182.1566 55.497 182.052 54.7685 182.052 54.0938 182.052 53.6253 182.1566 53.0039 182.3627 52.2221 182.6226 51.4429 183.4554 50.8723 184.9629 50.4037V49.9887C183.4554 50.144 182.4163 50.1973 181.4284 50.1973 180.1295 50.1973 178.986 50.144 177.323 49.9887ZM186.9367 67.5527V67.5527C186.9874 67.5527 187.0917 67.5527 187.1456 67.5527 188.3908 67.5527 189.534 67.242 190.5732 66.6181 192.8602 65.1107 194.2123 62.1998 195.5112 59.2914 197.3296 55.2881 199.3567 50.559 204.4497 50.559 206.7367 50.559 207.0473 52.4307 207.0473 53.3146 207.0473 53.8849 206.943 54.8731 206.3724 56.3298 206.3191 56.4316 206.2174 56.6405 206.2174 56.6912 196.6037 78.9871 196.4458 79.4024 193.9527 85.2214 193.1196 83.2479 191.1971 78.2079 189.0683 72.9057 188.3398 71.0878 187.6113 69.3201 186.9367 67.5527Z" fill="#ffffff"/>
<path transform="matrix(1,0,0,-1,0,453.5433)" stroke-width=".959" stroke-linecap="butt" stroke-miterlimit="22.925585" stroke-linejoin="miter" fill="none" stroke="#ffffff" d="M177.323 50.4037C179.35 51.4964 180.5953 53.2638 181.688 55.7566 184.3897 62.4594 186.8321 68.5919 188.9637 74.0492 192.7046 83.2986 196.4458 92.9149 196.8633 94.1091 196.9143 94.1601 196.9143 94.1601 196.9143 94.2137H197.3296L213.908 55.7059C215.5175 52.0157 216.7654 50.8723 218.1688 50.4037V49.9887C215.4665 50.1973 213.493 50.2483 211.466 50.2483 209.4389 50.2483 207.3606 50.1973 204.4497 49.9887 200.9687 49.9887 198.8881 52.0157 197.2783 54.6134 196.4458 55.912 195.7198 57.3154 195.0962 58.8229 193.2242 63.3433 191.0925 66.9824 187.1963 66.9824 187.041 66.9824 186.8321 66.9824 186.6767 66.9824 184.8586 62.2534 183.1419 58.0946 182.4673 56.2762 182.1566 55.497 182.052 54.7685 182.052 54.0938 182.052 53.6253 182.1566 53.0039 182.3627 52.2221 182.6226 51.4429 183.4554 50.8723 184.9629 50.4037V49.9887C183.4554 50.144 182.4163 50.1973 181.4284 50.1973 180.1295 50.1973 178.986 50.144 177.323 49.9887ZM186.9367 67.5527V67.5527C186.9874 67.5527 187.0917 67.5527 187.1456 67.5527 188.3908 67.5527 189.534 67.242 190.5732 66.6181 192.8602 65.1107 194.2123 62.1998 195.5112 59.2914 197.3296 55.2881 199.3567 50.559 204.4497 50.559 206.7367 50.559 207.0473 52.4307 207.0473 53.3146 207.0473 53.8849 206.943 54.8731 206.3724 56.3298 206.3191 56.4316 206.2174 56.6405 206.2174 56.6912 196.6037 78.9871 196.4458 79.4024 193.9527 85.2214 193.1196 83.2479 191.1971 78.2079 189.0683 72.9057 188.3398 71.0878 187.6113 69.3201 186.9367 67.5527Z"/>
<path transform="matrix(1,0,0,-1,0,453.5433)" d="M239.4337 94.4198C245.0463 94.4198 250.346 92.9149 255.075 89.589L252.9969 81.7937 252.4748 81.8955C250.6567 88.7562 247.0708 93.9005 240.0041 93.9005 235.3793 93.9005 231.8981 92.1331 229.3515 89.2247 229.0915 88.2876 228.9365 87.4066 228.9365 86.5738 228.9365 84.8064 229.5604 82.2087 232.0024 79.7131 234.4448 77.1661 238.0813 75.5033 241.6669 75.0883 245.357 74.7241 249.2025 74.5688 252.7373 74.5688 256.0632 74.5688 259.0248 74.7241 261.1539 74.8823V74.3091C257.8277 74.3091 257.0485 72.6996 256.9978 69.1112V55.8612C248.5278 54.4073 247.3843 49.8841 239.2781 49.8841 227.0137 49.8841 217.1911 58.7186 217.1911 72.3356 217.1911 85.2749 226.2345 94.4198 239.4337 94.4198ZM223.9985 71.7625V71.7625C223.9985 60.9009 229.5604 50.4573 240.0574 50.4573 246.0319 50.4573 250.346 55.2373 250.346 60.8499V68.9051C250.346 72.5953 247.3305 73.6342 240.368 74.7241 238.2367 75.0883 236.2122 75.8676 234.3912 77.0647 230.235 79.6113 228.3633 83.2479 228.3633 86.5227 228.3633 87.0934 228.4166 87.6662 228.5186 88.2369 226.9599 86.1052 225.8164 83.6629 225.091 80.8055 224.3625 77.9482 223.9985 74.933 223.9985 71.7625Z" fill="#ffffff"/>
<path transform="matrix(1,0,0,-1,0,453.5433)" stroke-width=".959" stroke-linecap="butt" stroke-miterlimit="22.925585" stroke-linejoin="miter" fill="none" stroke="#ffffff" d="M239.4337 94.4198C245.0463 94.4198 250.346 92.9149 255.075 89.589L252.9969 81.7937 252.4748 81.8955C250.6567 88.7562 247.0708 93.9005 240.0041 93.9005 235.3793 93.9005 231.8981 92.1331 229.3515 89.2247 229.0915 88.2876 228.9365 87.4066 228.9365 86.5738 228.9365 84.8064 229.5604 82.2087 232.0024 79.7131 234.4448 77.1661 238.0813 75.5033 241.6669 75.0883 245.357 74.7241 249.2025 74.5688 252.7373 74.5688 256.0632 74.5688 259.0248 74.7241 261.1539 74.8823V74.3091C257.8277 74.3091 257.0485 72.6996 256.9978 69.1112V55.8612C248.5278 54.4073 247.3843 49.8841 239.2781 49.8841 227.0137 49.8841 217.1911 58.7186 217.1911 72.3356 217.1911 85.2749 226.2345 94.4198 239.4337 94.4198ZM223.9985 71.7625V71.7625C223.9985 60.9009 229.5604 50.4573 240.0574 50.4573 246.0319 50.4573 250.346 55.2373 250.346 60.8499V68.9051C250.346 72.5953 247.3305 73.6342 240.368 74.7241 238.2367 75.0883 236.2122 75.8676 234.3912 77.0647 230.235 79.6113 228.3633 83.2479 228.3633 86.5227 228.3633 87.0934 228.4166 87.6662 228.5186 88.2369 226.9599 86.1052 225.8164 83.6629 225.091 80.8055 224.3625 77.9482 223.9985 74.933 223.9985 71.7625Z"/>
<path transform="matrix(1,0,0,-1,0,453.5433)" d="M267.1415 50.093C266.3113 50.0394 265.5831 50.0394 264.9081 49.9887V50.508C268.5954 50.508 269.0133 52.1201 269.0133 55.912V88.7054C269.0133 91.7178 268.649 93.6941 265.5831 93.6941V94.2137C268.5447 94.0048 270.3121 93.9005 272.1305 93.9005 274.0533 93.9005 275.925 94.0048 279.0955 94.2137V93.6941C276.0293 93.6941 275.665 91.8224 275.665 88.8605V55.912C275.665 52.2221 276.391 50.508 279.8212 50.508V49.9887C277.3789 50.144 274.9368 50.1973 272.7034 50.1973 270.4674 50.1973 268.5447 50.144 267.1415 50.093Z" fill="#ffffff"/>
<path transform="matrix(1,0,0,-1,0,453.5433)" stroke-width=".959" stroke-linecap="butt" stroke-miterlimit="22.925585" stroke-linejoin="miter" fill="none" stroke="#ffffff" d="M267.1415 50.093C266.3113 50.0394 265.5831 50.0394 264.9081 49.9887V50.508C268.5954 50.508 269.0133 52.1201 269.0133 55.912V88.7054C269.0133 91.7178 268.649 93.6941 265.5831 93.6941V94.2137C268.5447 94.0048 270.3121 93.9005 272.1305 93.9005 274.0533 93.9005 275.925 94.0048 279.0955 94.2137V93.6941C276.0293 93.6941 275.665 91.8224 275.665 88.8605V55.912C275.665 52.2221 276.391 50.508 279.8212 50.508V49.9887C277.3789 50.144 274.9368 50.1973 272.7034 50.1973 270.4674 50.1973 268.5447 50.144 267.1415 50.093Z"/>
<path transform="matrix(1,0,0,-1,0,453.5433)" d="M76.214 37.1049V29.4542H77.307V37.1049ZM89.2981 37.1049V31.4654L85.3308 37.1049H84.3797V29.4542H85.4728V35.0938L89.4402 29.4542H90.3912V37.1049ZM101.8468 36.1106V37.1049H97.4639V29.4542H98.5569V32.8425H101.4313V33.8372H98.5569V36.1106ZM114.2532 29.4542 112.4391 32.6676C113.3243 33.0503 113.8161 33.8261 113.8161 34.7553 113.8161 36.0777 112.8104 37.1049 111.062 37.1049H108.701V29.4542H109.794V32.4054H111.062C111.1711 32.4054 111.2695 32.4054 111.3571 32.4162L112.9416 29.4542ZM109.794 33.3998V36.1106H111.062C112.1221 36.1106 112.6902 35.5748 112.6902 34.7553 112.6902 33.9355 112.1221 33.3998 111.062 33.3998ZM125.9821 29.4542H127.1628L124.321 37.1049H123.0749L120.2335 29.4542H121.4138L122.0587 31.2905H125.3373ZM122.4082 32.296 123.698 35.9357 124.9767 32.296ZM136.5525 33.6949C135.58 33.9134 134.6508 34.0665 134.6508 35.0393 134.6508 35.7715 135.2409 36.2197 135.9731 36.2197 136.7821 36.2197 137.1756 35.7826 137.3284 35.3234L138.3996 35.5859C138.0827 36.646 137.1756 37.2362 136.0826 37.2362 134.6618 37.2362 133.558 36.3288 133.558 35.0393 133.558 34.0447 133.9078 33.2359 135.4487 32.8643 136.662 32.5692 137.5909 32.5256 137.5909 31.4872 137.5909 30.7003 136.8584 30.3395 136.0278 30.3395 135.0113 30.3395 134.443 30.8752 134.3339 31.3781L133.2519 31.0391C133.6232 29.8369 134.8367 29.3122 136.006 29.3122 137.9733 29.3122 138.7057 30.5033 138.7057 31.5746 138.7057 32.8096 138.039 33.3454 136.5525 33.6949ZM149.8663 37.1049H144.9043V36.1106H146.8389V29.4542H147.9317V36.1106H149.8663ZM162.1636 29.4542 160.3491 32.6676C161.2344 33.0503 161.7262 33.8261 161.7262 34.7553 161.7262 36.0777 160.7207 37.1049 158.972 37.1049H156.6111V29.4542H157.7041V32.4054H158.972C159.0812 32.4054 159.1795 32.4054 159.2671 32.4162L160.8517 29.4542ZM157.7041 33.3998V36.1106H158.972C160.0322 36.1106 160.6005 35.5748 160.6005 34.7553 160.6005 33.9355 160.0322 33.3998 158.972 33.3998ZM173.291 37.1049V32.5582C173.291 30.9186 172.5806 30.3506 171.4878 30.3506 170.3837 30.3506 169.6734 30.9186 169.6734 32.5582V37.1049H168.5803V32.3614C168.5803 30.3724 169.6187 29.3122 171.4878 29.3122 173.3457 29.3122 174.3951 30.3724 174.3951 32.3614V37.1049ZM185.0856 30.3395C183.3041 30.3395 182.3094 31.7934 182.3094 33.2796 182.3094 34.7661 183.3041 36.2197 185.0856 36.2197 186.0146 36.2197 186.736 35.8155 187.217 35.2253L188.1241 35.8155C187.4245 36.7007 186.3533 37.2362 185.0856 37.2362 182.823 37.2362 181.1945 35.5204 181.1945 33.2796 181.1945 31.0391 182.823 29.3122 185.0856 29.3122 186.3533 29.3122 187.4245 29.8585 188.1241 30.7332L187.217 31.3342C186.736 30.744 186.0146 30.3395 185.0856 30.3395ZM199.5579 37.1049H194.5959V36.1106H196.5305V29.4542H197.6233V36.1106H199.5579ZM211.0133 37.1049V32.5582C211.0133 30.9186 210.3029 30.3506 209.2102 30.3506 208.1061 30.3506 207.3957 30.9186 207.3957 32.5582V37.1049H206.3027V32.3614C206.3027 30.3724 207.341 29.3122 209.2102 29.3122 211.068 29.3122 212.1174 30.3724 212.1174 32.3614V37.1049ZM224.7423 29.4542 222.9282 32.6676C223.8134 33.0503 224.3052 33.8261 224.3052 34.7553 224.3052 36.0777 223.2995 37.1049 221.5511 37.1049H219.1901V29.4542H220.2831V32.4054H221.5511C221.6602 32.4054 221.7586 32.4054 221.8462 32.4162L223.4307 29.4542ZM220.2831 33.3998V36.1106H221.5511C222.6112 36.1106 223.1793 35.5748 223.1793 34.7553 223.1793 33.9355 222.6112 33.3998 221.5511 33.3998ZM232.3729 30.4489V32.9187H235.2472V33.9134H232.3729V36.1106H235.4879V37.1049H231.2688V29.4542H235.597V30.4489Z" fill="#ffffff"/>
<path transform="matrix(1,0,0,-1,0,453.5433)" stroke-width=".216" stroke-linecap="butt" stroke-miterlimit="2.6131259" stroke-linejoin="miter" fill="none" stroke="#ffffff" d="M76.214 37.1049V29.4542H77.307V37.1049ZM89.2981 37.1049V31.4654L85.3308 37.1049H84.3797V29.4542H85.4728V35.0938L89.4402 29.4542H90.3912V37.1049ZM101.8468 36.1106V37.1049H97.4639V29.4542H98.5569V32.8425H101.4313V33.8372H98.5569V36.1106ZM114.2532 29.4542 112.4391 32.6676C113.3243 33.0503 113.8161 33.8261 113.8161 34.7553 113.8161 36.0777 112.8104 37.1049 111.062 37.1049H108.701V29.4542H109.794V32.4054H111.062C111.1711 32.4054 111.2695 32.4054 111.3571 32.4162L112.9416 29.4542ZM109.794 33.3998V36.1106H111.062C112.1221 36.1106 112.6902 35.5748 112.6902 34.7553 112.6902 33.9355 112.1221 33.3998 111.062 33.3998ZM125.9821 29.4542H127.1628L124.321 37.1049H123.0749L120.2335 29.4542H121.4138L122.0587 31.2905H125.3373ZM122.4082 32.296 123.698 35.9357 124.9767 32.296ZM136.5525 33.6949C135.58 33.9134 134.6508 34.0665 134.6508 35.0393 134.6508 35.7715 135.2409 36.2197 135.9731 36.2197 136.7821 36.2197 137.1756 35.7826 137.3284 35.3234L138.3996 35.5859C138.0827 36.646 137.1756 37.2362 136.0826 37.2362 134.6618 37.2362 133.558 36.3288 133.558 35.0393 133.558 34.0447 133.9078 33.2359 135.4487 32.8643 136.662 32.5692 137.5909 32.5256 137.5909 31.4872 137.5909 30.7003 136.8584 30.3395 136.0278 30.3395 135.0113 30.3395 134.443 30.8752 134.3339 31.3781L133.2519 31.0391C133.6232 29.8369 134.8367 29.3122 136.006 29.3122 137.9733 29.3122 138.7057 30.5033 138.7057 31.5746 138.7057 32.8096 138.039 33.3454 136.5525 33.6949ZM149.8663 37.1049H144.9043V36.1106H146.8389V29.4542H147.9317V36.1106H149.8663ZM162.1636 29.4542 160.3491 32.6676C161.2344 33.0503 161.7262 33.8261 161.7262 34.7553 161.7262 36.0777 160.7207 37.1049 158.972 37.1049H156.6111V29.4542H157.7041V32.4054H158.972C159.0812 32.4054 159.1795 32.4054 159.2671 32.4162L160.8517 29.4542ZM157.7041 33.3998V36.1106H158.972C160.0322 36.1106 160.6005 35.5748 160.6005 34.7553 160.6005 33.9355 160.0322 33.3998 158.972 33.3998ZM173.291 37.1049V32.5582C173.291 30.9186 172.5806 30.3506 171.4878 30.3506 170.3837 30.3506 169.6734 30.9186 169.6734 32.5582V37.1049H168.5803V32.3614C168.5803 30.3724 169.6187 29.3122 171.4878 29.3122 173.3457 29.3122 174.3951 30.3724 174.3951 32.3614V37.1049ZM185.0856 30.3395C183.3041 30.3395 182.3094 31.7934 182.3094 33.2796 182.3094 34.7661 183.3041 36.2197 185.0856 36.2197 186.0146 36.2197 186.736 35.8155 187.217 35.2253L188.1241 35.8155C187.4245 36.7007 186.3533 37.2362 185.0856 37.2362 182.823 37.2362 181.1945 35.5204 181.1945 33.2796 181.1945 31.0391 182.823 29.3122 185.0856 29.3122 186.3533 29.3122 187.4245 29.8585 188.1241 30.7332L187.217 31.3342C186.736 30.744 186.0146 30.3395 185.0856 30.3395ZM199.5579 37.1049H194.5959V36.1106H196.5305V29.4542H197.6233V36.1106H199.5579ZM211.0133 37.1049V32.5582C211.0133 30.9186 210.3029 30.3506 209.2102 30.3506 208.1061 30.3506 207.3957 30.9186 207.3957 32.5582V37.1049H206.3027V32.3614C206.3027 30.3724 207.341 29.3122 209.2102 29.3122 211.068 29.3122 212.1174 30.3724 212.1174 32.3614V37.1049ZM224.7423 29.4542 222.9282 32.6676C223.8134 33.0503 224.3052 33.8261 224.3052 34.7553 224.3052 36.0777 223.2995 37.1049 221.5511 37.1049H219.1901V29.4542H220.2831V32.4054H221.5511C221.6602 32.4054 221.7586 32.4054 221.8462 32.4162L223.4307 29.4542ZM220.2831 33.3998V36.1106H221.5511C222.6112 36.1106 223.1793 35.5748 223.1793 34.7553 223.1793 33.9355 222.6112 33.3998 221.5511 33.3998ZM232.3729 30.4489V32.9187H235.2472V33.9134H232.3729V36.1106H235.4879V37.1049H231.2688V29.4542H235.597V30.4489Z"/>
<path transform="matrix(1,0,0,-1,0,453.5433)" d="M287.8812 427.9946V111.475H23.9301V427.9946Z" fill="#ffffff" fill-rule="evenodd"/>
<path transform="matrix(1,0,0,-1,0,453.5433)" d="M200.9792 355.7197C199.6892 348.5815 198.356 341.3163 197.0677 334.0431 195.7907 326.8341 194.561 319.6165 193.3072 312.4029 192.0413 305.119 190.777 297.8351 189.5017 290.5529 188.2378 283.3347 187.0517 276.101 185.6639 268.9064 184.2667 261.6642 182.929 254.4182 181.6971 247.1525 181.8964 247.0912 182.0957 247.0303 182.2952 246.9691 182.5084 247.2817 182.8406 247.568 182.9171 247.9113 184.2327 253.8164 185.5128 259.7298 186.8094 265.6392 188.9226 275.2716 191.0443 284.9023 193.1587 294.5347 195.4828 305.1247 197.7911 315.7177 200.1268 326.3051 202.7356 338.1287 205.3698 349.9469 207.987 361.7688 208.3462 363.39 208.7637 364.8892 210.4138 365.8181 211.244 366.2858 211.7962 367.2476 212.809 367.7669 203.7779 327.1025 194.7461 286.4384 185.7305 245.7703 185.6959 245.6133 185.8944 245.4043 186.0905 245.0001 186.3507 245.3216 186.5982 245.4953 186.656 245.7181 188.6102 253.2342 190.5026 260.7667 192.4968 268.2723 194.6262 276.2861 196.854 284.2741 199.0304 292.2752 201.1898 300.2119 203.3734 308.1419 205.4829 316.0916 207.7818 324.7554 209.9659 333.4499 212.2784 342.1097 214.5722 350.6998 216.9677 359.2627 219.3094 367.8401 219.9983 370.3629 220.6922 372.8854 221.3135 375.4256 221.6081 376.6303 222.1268 377.6017 223.0747 378.4465 224.1071 379.3671 224.9649 380.484 226.2685 381.367 224.9626 376.3369 223.6691 371.3034 222.3468 366.2779 220.9966 361.1452 219.632 356.0165 218.2476 350.8934 216.864 345.7743 215.4226 340.6714 214.054 335.5486 212.6837 330.4196 211.3971 325.2685 210.0283 320.1392 208.6804 315.0884 207.2585 310.0578 205.9007 305.0096 204.5228 299.8868 203.1874 294.7524 201.8262 289.6248 200.4653 284.4975 199.1197 279.366 197.7228 274.2483 196.3256 269.1303 194.8025 264.0461 193.4649 258.9131 192.1433 253.8417 190.442 248.8626 189.301 243.7449 189.4867 243.6701 189.6721 243.5947 189.8578 243.5199 190.1032 243.8955 190.4457 244.2402 190.5792 244.652 191.7746 248.3515 192.9385 252.0612 194.1015 255.7709 196.2935 262.7617 198.4799 269.7537 200.6663 276.7462 203.5653 286.0174 206.4484 295.2935 209.363 304.56 212.2801 313.8327 215.2301 323.0949 218.1611 332.3631 219.8965 337.8509 221.6186 343.3428 223.3542 348.8301 224.3347 351.9309 225.33 355.0269 226.3207 358.132 226.4573 358.0421 226.6719 357.9684 226.6733 357.8902 226.7359 354.9779 226.9114 352.0587 226.768 349.1555 226.696 347.7022 226.078 346.2656 225.6375 344.8429 223.5152 337.9884 221.3824 331.1374 219.2281 324.2928 217.4567 318.6641 215.6411 313.0492 213.861 307.423 211.7407 300.7227 209.6544 294.012 207.5221 287.3157 204.7771 278.6961 201.9923 270.089 199.2413 261.4711 197.5139 256.0598 195.8272 250.6354 194.0984 245.2243 193.7021 243.9836 192.8911 242.854 193.0686 241.4341 194.1092 241.4197 194.1077 242.2247 194.3198 242.8106 196.5084 248.8558 198.6868 254.9049 200.8661 260.9535 202.614 265.8047 204.353 270.6593 206.1079 275.5077 209.4148 284.6426 212.7115 293.7813 216.049 302.9051 218.7454 310.2761 221.5001 317.6257 224.2168 324.9896 224.6564 326.1815 225.0232 327.4007 225.4397 328.6018 225.7206 329.4113 226.0298 330.2113 226.4462 330.9636 227.2371 325.0111 226.7436 321.8145 224.6873 316.3969 221.7427 308.6393 218.8959 300.8443 216.0343 293.0553 214.1821 288.0136 212.381 282.9529 210.5512 277.903 207.5468 269.6117 204.5608 261.3141 201.5195 253.0363 200.1288 249.2504 198.6171 245.5095 197.1848 241.7386 197.0175 241.2981 197.0082 240.7975 196.9257 240.3247 197.0691 240.26 197.2125 240.1957 197.356 240.1311 197.6468 240.5764 198.0173 240.9891 198.2157 241.4724 200.425 246.8568 202.5995 252.2557 204.8006 257.6435 206.2684 261.2367 207.7659 264.818 209.2476 268.4055 210.7573 272.0616 212.2566 275.7223 213.774 279.3753 216.18 285.169 218.6223 290.9477 221.0017 296.7525 222.6436 300.7582 224.2012 304.7984 225.8101 308.8179 225.9091 309.0651 226.1242 309.2655 226.2722 309.4696 226.4355 309.3987 226.5656 309.3659 226.5642 309.3398 226.3842 306.1315 227.3244 302.9508 225.902 299.702 222.3383 291.5614 219.1144 283.2732 215.7001 275.0666 212.1426 266.5162 208.5262 257.9902 204.9262 249.4576 203.6784 246.4999 202.3892 243.5598 201.149 240.5996 200.8823 239.9632 200.7439 239.2733 200.8293 238.5077 203.6387 242.6593 205.4013 247.297 207.4791 251.7721 209.554 256.2412 211.5028 260.7687 213.567 265.2426 215.6644 269.788 217.8354 274.2993 219.9733 278.826 222.0724 283.2707 224.1706 287.716 226.2872 292.1998 227.1246 291.7089 226.6016 290.9769 226.6957 290.3783 227.3102 286.4789 225.9167 283.0686 224.2607 279.6625 221.5794 274.1479 219.0586 268.5557 216.4297 263.0154 212.5525 254.8451 208.6362 246.6935 204.7538 238.5258 204.5534 238.1046 204.5134 237.6074 204.3986 237.1456 204.5443 237.0739 204.69 237.0022 204.8357 236.9305 205.2683 237.5768 205.7689 238.1873 206.1221 238.8745 208.2753 243.0643 210.3769 247.2809 212.5304 251.4708 215.367 256.9893 218.2499 262.4842 221.0848 268.0033 222.6532 271.0565 224.1615 274.1409 225.7089 277.2054 225.8396 277.4642 226.0596 277.6779 226.3799 278.0991 226.5574 277.6354 226.7617 277.3358 226.7742 277.0282 226.8261 275.7648 226.9131 274.4912 226.8048 273.2374 226.7172 272.2218 226.554 271.1353 226.1052 270.2404 223.6927 265.4294 221.2254 260.6445 218.6915 255.8962 215.2429 249.4341 211.7132 243.0153 208.2385 236.5668 208.0879 236.2878 208.1392 235.9003 208.2957 235.4732 210.5243 237.5144 211.5856 240.3034 213.1041 242.7727 214.6309 245.255 215.9527 247.8626 217.3819 250.4055 218.8474 253.0137 220.3138 255.6213 221.8173 258.207 223.2573 260.6837 224.7457 263.1319 226.3745 265.5312 226.8604 262.332 226.8876 259.3837 225.0224 256.4206 220.5612 249.3337 216.4025 242.0558 212.1324 234.849 211.784 234.2616 211.0989 233.7429 211.6327 232.6031 214.6666 236.2643 216.6514 240.3575 219.126 244.1169 221.5857 247.8529 223.8712 251.7038 226.2722 255.5674 227.0268 253.5403 226.6345 249.9503 225.6282 248.3572 224.3908 246.3987 223.2706 244.3657 222.0163 242.4186 219.829 239.0241 217.5715 235.6747 215.3605 232.2958 214.9804 231.7144 214.6833 231.0786 214.5883 230.3223 217.0913 232.5974 218.7448 235.4927 220.6633 238.1769 222.5616 240.8321 224.3659 243.5545 226.4006 246.1893 226.5885 243.9556 227.2416 241.7839 225.646 239.69 223.2901 236.5985 221.112 233.3716 218.8871 230.182 218.6303 229.8138 218.5583 229.3169 218.4004 228.8801 218.5447 228.7959 218.6889 228.712 218.8332 228.6278 221.3235 231.8051 223.8134 234.9822 226.3037 238.159 226.7008 235.5786 227.111 233.1726 224.9858 231.1498 223.6997 229.9258 222.7311 228.3633 221.6585 226.9244 221.3785 226.5491 221.2421 226.067 221.04 225.6338 221.1755 225.5349 221.3107 225.436 221.4462 225.3368 223.0685 227.2277 224.6907 229.1185 226.313 231.0097 226.6702 228.9991 227.2941 227.1331 226.0386 225.8836 227.3808 222.0999 226.4797 218.5713 226.777 214.8454 210.5416 214.2323 196.2505 209.1951 184.0898 198.6077 171.9164 188.0099 164.9035 174.583 161.8909 158.8113 161.8523 159.1914 161.7789 159.5713 161.7803 159.9511 161.8129 170.2071 161.8764 180.4629 161.8875 190.7189 161.9121 213.1894 161.9237 235.6597 161.9158 258.1302 161.9096 276.7802 161.9175 295.4307 161.788 314.0802 161.7687 316.8573 162.8368 318.7307 165.2202 320.6262 165.5705 296.405 165.1731 272.5296 165.2014 248.6585 165.4676 248.6358 165.7335 248.6129 165.9994 248.5896 166.102 249.264 166.2712 249.9358 166.2973 250.6133 166.7602 262.7303 167.1877 274.8489 167.6616 286.9662 167.9304 293.8433 168.2512 300.7185 168.582 307.5934 168.823 312.5993 169.177 317.6011 169.3553 322.609 169.4098 324.1406 169.7794 325.3595 170.9495 326.3658 171.491 326.8315 171.8994 327.452 172.5945 327.9365 172.1463 301.5516 170.5445 275.2611 169.3259 248.9576 169.6022 248.9162 169.8783 248.8748 170.1547 248.8334 170.352 249.5656 170.6717 250.2882 170.7276 251.0306 171.231 257.7433 171.6506 264.4625 172.1713 271.1738 172.5701 276.315 173.0718 281.448 173.5418 286.5832 174.5039 297.087 175.4963 307.5883 176.4337 318.0946 176.8326 322.5637 177.1033 327.0444 177.4902 331.5149 177.5506 332.2159 177.7703 333.0003 178.1787 333.5522 178.9191 334.5531 179.8566 335.408 181.1171 336.2369 180.8175 332.0756 180.54 327.9129 180.212 323.7542 179.877 319.5014 179.4742 315.254 179.134 311.002 178.7941 306.7549 178.5583 302.4989 178.1606 298.2577 177.7703 294.0919 177.1753 289.9451 176.777 285.7799 176.3714 281.5353 176.1265 277.2757 175.7546 273.0274 175.3832 268.7817 174.7684 264.5495 174.5807 260.2973 174.3962 256.1094 173.2958 251.9751 173.7833 247.7242 174.6128 248.3243 174.6794 249.1897 174.782 250.0248 175.2758 254.0313 175.7426 258.0412 176.2421 262.0468 176.8062 266.5723 177.372 271.0976 177.9775 275.6177 178.9004 282.5062 179.8792 289.387 180.7937 296.2763 181.4825 301.4668 182.1059 306.6659 182.7615 311.8609 183.2581 315.7929 183.7392 319.7271 184.2661 323.6547 184.6735 326.6912 185.1647 329.7161 185.5749 332.752 185.9142 335.2666 186.2065 337.7883 186.486 340.3106 186.6498 341.7928 187.2176 342.9907 188.4484 343.9165 189.1301 344.4293 189.6401 345.1711 190.6041 346.2194 190.3178 344.1657 190.0871 342.6673 189.9031 341.1629 189.0499 334.1914 188.2142 327.2176 187.3602 320.2461 187.1966 318.9101 186.9661 317.5826 186.7881 316.2484 186.4525 313.7292 186.139 311.207 185.8039 308.6878 185.0854 303.2824 184.3546 297.879 183.6377 292.4736 182.9398 287.2148 182.2677 281.9523 181.5576 276.6951 180.8277 271.2903 180.0782 265.8881 179.3123 260.4883 178.7984 256.8643 178.2204 253.2489 177.7173 249.6234 177.5704 248.5647 177.5832 247.4841 177.7467 246.382 178.8729 247.6157 178.9384 249.1931 179.1981 250.6346 180.2565 256.517 181.1483 262.4292 182.166 268.3193 183.6933 277.1606 185.2705 285.9934 186.8346 294.8281 188.3197 303.2164 189.8359 311.599 191.298 319.991 192.0421 324.2605 192.6468 328.5547 193.4042 332.8217 194.5145 339.0761 195.6878 345.3197 196.89 351.557 197.0076 352.1673 197.4087 352.8176 197.8676 353.2473 198.7841 354.1056 199.8317 354.8237 200.9792 355.7197" fill="#FFBF00"/>
<path transform="matrix(1,0,0,-1,0,453.5433)" d="M121.968 243.993C122.5653 245.7839 121.5054 247.3432 121.0895 248.9423 119.5481 254.8695 117.7809 260.7378 116.1547 266.6438 113.9131 274.7832 111.6887 282.928 109.5182 291.0866 107.4818 298.7433 105.554 306.4289 103.5238 314.0872 102.0305 319.7208 100.4275 325.3255 98.9138 330.954 97.6535 335.6396 96.4845 340.3494 95.2177 345.0334 93.1286 352.7578 90.9683 360.4629 88.8902 368.1901 88.0965 371.141 87.4738 374.1375 86.7197 377.0997 86.3597 378.5139 85.8747 379.8969 85.3869 381.4875 87.5854 380.0968 89.9595 377.2012 90.4825 375.3071 91.6364 371.1294 92.7524 366.9409 93.8917 362.759 96.1106 354.6108 98.3696 346.4736 100.5469 338.3144 102.4722 331.0982 104.2705 323.8481 106.1974 316.6319 107.9314 310.138 109.7779 303.6739 111.5476 297.1891 112.629 293.2245 113.6543 289.2444 114.7139 285.2736 115.7734 281.3014 116.8688 277.3383 117.904 273.3593 119.3525 267.7912 120.7548 262.211 122.1854 256.6383 123.1333 252.9462 124.0903 249.2566 125.0651 245.5722 125.1286 245.3329 125.3789 245.1433 125.9889 245.0273 125.8722 246.1453 125.8625 247.2871 125.6202 248.3776 124.4381 253.6977 123.169 258.9982 121.9774 264.316 119.5098 275.3291 117.0609 286.3468 114.626 297.3671 113.368 303.0608 112.1766 308.7689 110.9183 314.4626 109.0307 323.0033 107.1193 331.5387 105.2022 340.0727 103.5317 347.5086 101.8335 354.9379 100.1614 362.3732 99.7569 364.172 99.4065 365.9831 99.1525 367.8849 100.8048 365.8827 103.2355 364.7392 103.8249 361.6007 105.2311 354.1133 107.1672 346.7265 108.8212 339.2841 111.6598 326.5118 114.4457 313.7278 117.2551 300.9489 119.5829 290.3613 121.909 279.7727 124.2445 269.1865 125.3058 264.3763 126.4065 259.575 127.4536 254.7621 127.9933 252.282 128.4233 249.7782 128.969 247.2999 129.1691 246.39 129.5603 245.522 129.8645 244.635 130.0368 244.6756 130.2092 244.7161 130.3818 244.7566 130.1377 246.6031 129.9733 248.4646 129.6357 250.2941 128.1966 258.0891 126.6389 265.8631 125.2505 273.6669 123.2858 284.7093 121.4549 295.7757 119.5197 306.8235 118.7084 311.4561 117.758 316.0638 116.9101 320.6903 116.6 322.3814 116.4433 324.1003 116.1488 325.7949 114.7294 333.968 113.2903 342.1375 111.8494 350.3066 111.532 352.1075 111.1782 353.9018 110.8409 355.699 110.9803 355.756 111.1201 355.8127 111.2596 355.8696 112.297 354.8546 113.3836 353.8831 114.3465 352.8017 114.7122 352.391 114.8879 351.7435 114.9888 351.1752 115.8123 346.536 116.5558 341.8821 117.4079 337.248 118.1778 333.0598 119.0871 328.8974 119.8687 324.7112 120.2797 322.5084 120.5235 320.275 120.8877 318.0628 121.4096 314.892 121.9363 311.7214 122.5256 308.5628 123.5815 302.9066 124.742 297.2693 125.7525 291.6051 126.6321 286.6748 127.3416 281.7145 128.1677 276.7742 129.4492 269.1111 130.7582 261.4527 132.071 253.7952 132.5344 251.0935 133.043 248.3997 133.613 245.2484 134.5552 246.757 134.3171 247.9215 134.1604 249.046 133.3361 254.9704 132.4769 260.8894 131.6438 266.8127 130.9989 271.3949 130.3475 275.9766 129.748 280.5647 128.7598 288.1278 127.834 295.6992 126.8388 303.2612 126.0003 309.6351 125.1048 316.0018 124.2264 322.3706 123.6645 326.4437 123.0718 330.5126 122.5222 334.5874 122.0426 338.1398 121.6012 341.6975 121.157 345.2547 121.1431 345.3667 121.2854 345.498 121.4436 345.7766 122.4026 344.8434 123.3933 343.9823 124.2485 343.0029 124.6609 342.5306 124.9707 341.8586 125.064 341.2375 125.496 338.3612 125.8345 335.471 126.2086 332.5861 127.0159 326.3587 127.7949 320.1276 128.6425 313.9058 129.2471 309.4671 129.975 305.0453 130.5916 300.6079 131.1163 296.8302 131.5471 293.0394 132.0435 289.2574 132.986 282.0711 133.9838 274.8917 134.886 267.7005 135.6591 261.5414 136.3241 255.3684 137.0582 249.2042 137.1339 248.5689 137.3562 247.9513 137.8973 247.3279 138.02 247.7078 138.2706 248.097 138.2443 248.466 138.0685 250.9254 137.8431 253.3813 137.6155 255.837 137.298 259.2641 136.9579 262.6892 136.6393 266.1165 136.2175 270.6588 135.7804 275.1996 135.398 279.7452 134.7208 287.7945 134.1048 295.8494 133.4146 303.8975 132.9545 309.2607 132.387 314.6145 131.9105 319.9762 131.5128 324.4473 131.1874 328.9249 130.807 333.3977 130.7256 334.3538 130.5454 335.3014 130.4076 336.2751 132.2053 335.6586 134.2049 333.1783 134.3358 331.4979 134.9357 323.8149 135.5304 316.1316 136.1602 308.4511 136.5883 303.2348 137.054 298.0216 137.5339 292.8098 138.2332 285.2135 139.0122 277.6246 139.6599 270.0241 140.1999 263.6909 140.5899 257.345 141.0704 251.007 141.1554 249.8845 141.0551 248.6778 142.1096 247.7914 142.5736 253.0732 141.9582 258.315 141.7881 263.5586 141.6135 268.9407 141.1656 274.3135 140.8941 279.6931 140.6265 284.9995 140.4369 290.31 140.2007 295.6181 139.9618 301.0008 139.6729 306.3818 139.4702 311.766 139.271 317.0667 139.1519 322.3706 138.9986 327.6394 140.8022 327.0453 142.3619 325.1384 142.435 323.2417 142.6192 318.4563 142.7479 313.6691 142.9364 308.884 143.1986 302.2282 143.4934 295.5739 143.7775 288.9193 144.1315 280.6209 144.4745 272.3219 144.8498 264.0246 145.0593 259.3936 145.3178 254.7646 145.5758 250.1359 145.603 249.6489 145.7768 249.1699 146.2757 248.6367 146.3675 249.1407 146.5396 249.6444 146.5396 250.1484 146.5362 257.1111 146.5004 264.0742 146.4905 271.0372 146.4795 278.8228 146.4911 286.6085 146.4843 294.3944 146.4772 302.7813 146.4596 311.1681 146.4542 319.555 146.454 319.756 146.5432 319.9567 146.6427 320.3756 148.9453 318.7664 150.09 316.8907 150.0188 314.0558 149.8535 307.4692 149.9267 300.8764 149.9219 294.2864 149.8966 261.2582 149.889 228.2301 149.8493 195.2022 149.8371 184.9431 149.7263 174.6839 149.7044 164.4245 149.7002 162.5088 149.9043 160.592 149.6781 158.6052 149.3495 159.8763 148.8569 161.1303 148.7217 162.4218 148.182 167.5772 146.0835 172.22 144.0456 176.8694 142.9685 179.3265 141.6951 181.7203 140.2883 184.0062 137.0137 189.3268 132.8837 193.9374 128.2765 198.1551 121.6497 204.222 113.927 208.385 105.531 211.3418 99.2134 213.5667 92.6232 214.4574 85.9501 214.7675 85.7356 214.7774 85.5252 214.8741 85.0294 215.0053 85.0294 217.0261 85.032 219.0966 85.0283 221.167 85.0269 221.9156 84.8959 222.6872 85.0388 223.4055 85.1496 223.9637 85.5938 224.4555 85.9997 225.1709 84.6009 226.6359 85.0618 228.7287 85.0734 231.0477 87.3346 229.5196 88.183 226.9182 90.7092 225.2693 90.426 226.1109 90.3849 226.5446 90.1624 226.8442 88.7797 228.706 87.3845 230.5596 85.9348 232.3692 85.2471 233.2276 84.7998 234.0215 85.089 235.2155 85.3024 236.0979 85.1309 237.0739 85.1309 238.4853 88.1722 234.9876 90.4467 231.349 93.2647 228.1793 93.4075 228.2652 93.5507 228.3514 93.6938 228.4373 93.5552 228.8795 93.5164 229.3923 93.2621 229.7531 91.3235 232.5039 89.4949 235.3535 87.3306 237.918 85.2831 240.3434 84.6547 242.964 85.1675 246.3746 85.7262 245.7473 86.1846 245.3318 86.5247 244.8354 89.6131 240.3312 92.6759 235.8099 95.7628 231.3051 96.0344 230.9088 96.425 230.5942 97.1348 230.4635 96.9276 230.9649 96.7901 231.5112 96.5024 231.9613 94.0068 235.8666 91.482 239.7532 88.9722 243.6491 88.3242 244.6549 87.8102 245.7709 87.0398 246.6689 84.8548 249.2161 84.797 252.1687 85.1774 255.6984 90.8271 247.8115 95.1834 239.5128 100.3204 231.7363 100.5489 231.8689 100.777 232.0016 101.0052 232.1345 100.2025 233.6732 99.4635 235.2489 98.5856 236.7434 94.4206 243.8328 90.2316 250.9084 86.0153 257.9675 85.2565 259.238 84.8514 260.5042 85.0269 262.0089 85.1635 263.1824 85.0544 264.3846 85.0544 266.0621 86.5885 264.2919 87.304 262.4386 88.3641 260.8319 89.4762 259.1467 90.5085 257.406 91.5151 255.6544 92.5206 253.9037 93.437 252.1026 94.4178 250.3375 95.362 248.6381 96.3547 246.9651 97.2972 245.2646 98.2757 243.4989 99.1794 241.6904 100.1891 239.9431 101.1742 238.2389 102.1496 236.5152 103.3685 234.9709 103.5462 235.0647 103.7242 235.1588 103.902 235.2529 103.6531 235.8924 103.4668 236.5654 103.1454 237.166 99.0921 244.741 94.9986 252.2945 90.9609 259.8778 89.2392 263.111 87.6447 266.4116 85.951 269.6601 85.2038 271.0928 84.8276 272.5475 84.9926 274.1834 85.1156 275.3997 85.017 276.6385 85.4229 277.9804 87.8261 273.4826 90.2633 269.0031 92.6232 264.4826 95.0114 259.9089 97.4509 255.3551 99.6401 250.6856 103.5581 242.3285 105.582 238.5181 107.2919 237.1791 107.1862 237.7667 107.1984 238.1899 107.0362 238.53 103.627 245.6819 100.1625 252.8073 96.783 259.973 92.9928 268.0095 89.2749 276.0803 85.532 284.1392 85.3438 284.5443 85.0927 284.976 85.0842 285.3995 85.0399 287.6717 85.0635 289.9457 85.2316 292.261 93.9832 274.566 102.0436 256.5791 110.2935 238.6823 110.5132 238.7443 110.7329 238.8067 110.9523 238.8688 110.8845 239.3804 110.9276 239.9394 110.732 240.3964 109.0273 244.3759 107.2346 248.3181 105.5554 252.3078 102.714 259.0594 99.9374 265.8382 97.1308 272.6045 95.7008 276.052 94.2613 279.4958 92.8315 282.9433 90.8016 287.837 89.009 292.847 86.6758 297.5913 84.8174 301.3699 85.0459 305.2386 85.0175 309.1671 85.0173 309.223 85.0836 309.2788 85.2656 309.5685 86.671 308.0531 86.633 305.9892 87.535 304.3723 88.4761 302.6852 89.0847 300.8132 89.8478 299.0256 90.6109 297.2375 91.406 295.4631 92.1489 293.667 92.8913 291.8738 93.5623 290.0514 94.3089 288.2602 95.0547 286.4704 95.8825 284.7146 96.6246 282.9231 97.367 281.1317 98.0192 279.3027 98.7639 277.5124 99.4805 275.7892 100.2889 274.1043 101.0126 272.3839 101.766 270.5936 102.473 268.7839 103.1879 266.9777 103.9034 265.17 104.5888 263.3505 105.3147 261.5474 106.0404 259.744 106.8072 257.9573 107.5422 256.1576 108.2775 254.3573 108.995 252.5502 109.7209 250.7462 110.4466 248.9426 111.1575 247.1329 111.9033 245.3374 112.6346 243.5769 113.4014 241.8307 114.1781 240.0194 115.1943 240.5764 114.8528 241.1833 114.6597 241.6966 112.6885 246.9362 110.6549 252.1525 108.7214 257.4057 105.6481 265.7565 102.6516 274.1357 99.597 282.4937 95.4686 293.7903 91.3136 305.077 87.1764 316.3703 86.5335 318.1249 85.9099 319.8872 85.3089 321.6566 85.1426 322.1464 85.0039 322.674 84.9974 323.1859 84.9662 325.7226 84.9832 328.2599 85.1539 330.8598 86.5585 328.8626 86.8737 326.4055 87.8423 324.2285 88.8426 321.9806 89.5912 319.6202 90.4448 317.3068 91.2728 315.0626 92.086 312.8131 92.9205 310.5714 93.7814 308.2586 94.6817 305.96 95.5247 303.641 96.368 301.3223 97.1495 298.9811 97.9818 296.6587 98.8132 294.338 99.663 292.0235 100.5248 289.7138 101.3604 287.4739 102.2474 285.2527 103.0643 283.0056 103.9056 280.6917 104.6699 278.3497 105.503 276.0327 106.3372 273.7117 107.2295 271.4117 108.0686 269.0926 108.9077 266.7747 109.7237 264.4481 110.5294 262.1183 111.3103 259.8599 112.0431 257.5843 112.8382 255.331 113.6588 253.0052 114.4454 250.6615 115.4018 248.3909 116.3407 246.162 116.6391 243.6653 118.512 241.653 118.512 242.1723 118.6455 242.7352 118.4922 243.2044 115.9642 250.9404 113.368 258.654 110.8559 266.3952 109.266 271.2946 107.805 276.2359 106.2581 281.1492 104.3734 287.1363 102.4441 293.1092 100.5616 299.0968 98.7471 304.869 96.9919 310.6599 95.1678 316.4289 93.0946 322.9863 90.9505 329.5216 88.8823 336.0807 87.6467 339.999 86.4896 343.9423 85.3189 347.8808 85.1499 348.4485 85.019 349.0515 85.0124 349.6397 84.9813 352.4766 84.9986 355.314 85.1788 358.2014 89.5056 345.6261 93.498 332.9495 97.5008 320.2773 101.5305 307.5214 105.4678 294.7363 109.4613 281.969 113.4369 269.259 117.4314 256.555 121.4178 243.8481 121.6012 243.8966 121.7846 243.9448 121.968 243.993" fill="#FFBF00"/>
</g>
</svg>
